HIERARCHY
ROOT Hips
{
	OFFSET -0.001795 -0.223333 0.028219
	CHANNELS 6 Xposition Yposition Zposition Zrotation Yrotation Xrotation 
	JOINT LeftUpLeg
	{
		OFFSET 0.069520 -0.091406 -0.006815
		CHANNELS 3 Zrotation Yrotation Xrotation
		JOINT LeftLeg
		{
			OFFSET 0.034277 -0.375199 -0.004496
			CHANNELS 3 Zrotation Yrotation Xrotation
			JOINT LeftFoot
			{
				OFFSET -0.013596 -0.397961 -0.043693
				CHANNELS 3 Zrotation Yrotation Xrotation
				JOINT LeftToe
				{
					OFFSET 0.026358 -0.055791 0.119288
					CHANNELS 3 Zrotation Yrotation Xrotation
					End Site
					{
						OFFSET 0.000000 0.000000 0.000000
					}
				}
			}
		}
	}
	JOINT RightUpLeg
	{
		OFFSET -0.067670 -0.090522 -0.004320
		CHANNELS 3 Zrotation Yrotation Xrotation
		JOINT RightLeg
		{
			OFFSET -0.038290 -0.382569 -0.008850
			CHANNELS 3 Zrotation Yrotation Xrotation
			JOINT RightFoot
			{
				OFFSET 0.015774 -0.398415 -0.042312
				CHANNELS 3 Zrotation Yrotation Xrotation
				JOINT RightToe
				{
					OFFSET -0.025372 -0.048144 0.123348
					CHANNELS 3 Zrotation Yrotation Xrotation
					End Site
					{
						OFFSET 0.000000 0.000000 0.000000
					}
				}
			}
		}
	}
	JOINT Spine
	{
		OFFSET -0.002533 0.108963 -0.026696
		CHANNELS 3 Zrotation Yrotation Xrotation
		JOINT Spine1
		{
			OFFSET 0.005487 0.135180 0.001092
			CHANNELS 3 Zrotation Yrotation Xrotation
			JOINT Spine2
			{
				OFFSET 0.001457 0.052922 0.025425
				CHANNELS 3 Zrotation Yrotation Xrotation
				JOINT Neck
				{
					OFFSET -0.002778 0.213870 -0.042857
					CHANNELS 3 Zrotation Yrotation Xrotation
					JOINT Head
					{
						OFFSET 0.005152 0.064970 0.051349
						CHANNELS 3 Zrotation Yrotation Xrotation
						End Site
						{
							OFFSET 0.000000 0.000000 0.000000
						}
					}
				}
				JOINT LeftShoulder
				{
					OFFSET 0.078845 0.121749 -0.034090
					CHANNELS 3 Zrotation Yrotation Xrotation
					JOINT LeftArm
					{
						OFFSET 0.090977 0.030469 -0.008868
						CHANNELS 3 Zrotation Yrotation Xrotation
						JOINT LeftForeArm
						{
							OFFSET 0.259612 -0.012772 -0.027456
							CHANNELS 3 Zrotation Yrotation Xrotation
							JOINT LeftHand
							{
								OFFSET 0.249234 0.008986 -0.001171
								CHANNELS 3 Zrotation Yrotation Xrotation
								End Site
								{
									OFFSET 0.000000 0.000000 0.000000
								}
							}
						}
					}
				}
				JOINT RightShoulder
				{
					OFFSET -0.081759 0.118833 -0.038615
					CHANNELS 3 Zrotation Yrotation Xrotation
					JOINT RightArm
					{
						OFFSET -0.096012 0.032551 -0.009143
						CHANNELS 3 Zrotation Yrotation Xrotation
						JOINT RightForeArm
						{
							OFFSET -0.253742 -0.013329 -0.021401
							CHANNELS 3 Zrotation Yrotation Xrotation
							JOINT RightHand
							{
								OFFSET -0.255298 0.007772 -0.005559
								CHANNELS 3 Zrotation Yrotation Xrotation
								End Site
								{
									OFFSET 0.000000 0.000000 0.000000
								}
							}
						}
					}
				}
			}
		}
	}
}
MOTION
Frames: 7
Frame Time: 0.050000
-0.361444 0.939806 -0.177704 -0.909759 -14.800374 -4.047929 0.216071 0.494160 4.527407 1.377753 0.083947 -5.759070 18.938306 33.924795 12.641859 0.000000 0.000000 0.000000 0.222764 -0.335366 4.132304 -11.806080 1.203653 0.327994 -8.486010 -21.910629 19.799385 0.000000 0.000000 0.000000 7.925625 -0.868007 9.719198 -6.682664 1.997748 -24.722638 -0.087364 10.526679 32.978054 3.311806 1.306220 -45.472248 0.000000 0.000000 0.000000 -24.631083 -9.003538 4.133400 -58.470583 -1.559219 -9.390950 -7.436224 -24.574456 2.938502 0.000000 0.000000 0.000000 35.117368 -0.881040 -2.667479 64.643330 0.598559 -9.303259 4.081466 28.590580 2.722316 0.000000 0.000000 0.000000 
-0.358924 0.939324 -0.174254 -0.997415 -15.040523 -3.827692 -0.155240 0.497813 4.498846 1.796077 0.046359 -5.725463 19.125660 34.281130 12.512675 0.000000 0.000000 0.000000 0.047797 -0.310211 3.986377 -11.746904 1.208653 0.428220 -8.341838 -21.735636 19.741740 0.000000 0.000000 0.000000 7.520091 -0.807059 9.225057 -6.661881 1.983959 -24.685851 0.186174 10.760664 33.260803 3.793365 1.100922 -45.184801 0.000000 0.000000 0.000000 -24.277920 -8.757398 3.974867 -58.583115 -1.763868 -9.333937 -7.338404 -24.698223 2.939096 0.000000 0.000000 0.000000 35.370374 -0.646524 -2.483568 64.378266 0.855322 -9.170033 3.880964 28.047548 2.613224 0.000000 0.000000 0.000000 
-0.356528 0.938971 -0.171022 -1.067732 -15.188452 -3.713447 -0.293398 0.504392 4.530038 1.788919 0.041303 -5.636617 19.218624 34.550065 12.226095 0.000000 0.000000 0.000000 -0.043704 -0.287017 3.771127 -11.828872 1.282472 0.859517 -8.253649 -21.635911 19.749864 0.000000 0.000000 0.000000 7.254697 -0.769015 8.917573 -6.696868 1.987565 -24.493786 0.334649 10.843534 33.334591 4.088162 0.949358 -44.757265 0.000000 0.000000 0.000000 -23.875900 -8.497687 3.823742 -58.937014 -1.952810 -9.305721 -7.021907 -24.942945 2.914897 0.000000 0.000000 0.000000 35.408628 -0.682619 -2.516152 64.390916 0.669569 -9.278994 3.778646 27.662870 2.545373 0.000000 0.000000 0.000000 
-0.354488 0.938260 -0.168143 -1.131618 -15.410777 -3.496004 -0.548115 0.524970 4.655295 2.024072 0.040182 -5.943651 19.354650 34.837229 12.091590 0.000000 0.000000 0.000000 -0.265604 -0.242604 3.399690 -11.654631 1.326145 1.315455 -8.162531 -21.519331 19.535451 0.000000 0.000000 0.000000 6.599526 -0.728039 8.826979 -6.488753 1.926997 -24.445573 0.553374 10.969941 33.306679 4.439853 0.773946 -44.341339 0.000000 0.000000 0.000000 -23.545348 -8.407910 3.774771 -59.243588 -2.389324 -9.133331 -6.797815 -24.957167 2.873690 0.000000 0.000000 0.000000 35.435636 -0.628550 -2.491886 64.343869 0.600762 -9.304726 3.667277 27.205768 2.462917 0.000000 0.000000 0.000000 
-0.353163 0.937968 -0.165632 -1.266635 -15.461307 -3.271499 -0.627439 0.551810 4.862745 2.187250 0.058910 -6.432008 19.364451 34.898184 12.007552 0.000000 0.000000 0.000000 -0.354445 -0.201727 2.917589 -11.448842 1.406308 2.033128 -8.164993 -21.528483 19.441161 0.000000 0.000000 0.000000 6.315203 -0.714289 8.804592 -6.548875 1.941223 -24.205643 0.549238 10.697267 33.176146 4.870600 0.547192 -44.165165 0.000000 0.000000 0.000000 -23.638246 -8.323671 3.821326 -59.358690 -2.631266 -9.031603 -6.219571 -25.298193 2.805464 0.000000 0.000000 0.000000 35.727003 -0.387751 -2.504875 64.395985 0.437471 -9.340306 3.633596 26.743071 2.380214 0.000000 0.000000 0.000000 
-0.352538 0.937575 -0.163469 -1.323916 -15.723870 -2.873290 -0.718037 0.560652 4.910028 2.293665 0.088454 -6.993218 19.513019 35.108543 12.109797 0.000000 0.000000 0.000000 -0.684373 -0.092504 1.735163 -10.872373 1.548862 3.531757 -8.126634 -21.485084 19.020670 0.000000 0.000000 0.000000 6.011964 -0.712359 8.960251 -6.516273 1.924748 -24.251635 0.524945 10.957481 33.128507 5.524941 0.271848 -43.932077 0.000000 0.000000 0.000000 -23.537156 -8.443289 3.868710 -59.144609 -3.066620 -8.784344 -6.380991 -25.551608 2.867536 0.000000 0.000000 0.000000 36.094582 -0.451475 -2.568955 64.655364 0.610759 -9.270883 3.158933 26.748296 2.286733 0.000000 0.000000 0.000000 
-0.352573 0.937443 -0.161536 -1.593892 -15.941568 -2.373860 -0.659408 0.534134 4.703503 2.621685 0.079666 -7.197798 19.683638 35.316315 12.267536 0.000000 0.000000 0.000000 -0.830643 0.014505 0.424929 -10.115988 1.681730 5.180612 -8.114685 -21.484838 18.694229 0.000000 0.000000 0.000000 5.932324 -0.728622 9.161926 -6.541036 1.922888 -24.227071 0.555443 11.030325 33.067808 5.773713 0.147717 -43.801671 0.000000 0.000000 0.000000 -23.708919 -8.816760 4.116453 -58.626038 -3.602462 -8.457963 -6.147690 -25.657892 2.818565 0.000000 0.000000 0.000000 36.590368 -0.448454 -2.666110 64.787228 0.786815 -9.167130 2.601405 26.441003 2.133749 0.000000 0.000000 0.000000 
